<?xml version="1.0" encoding="UTF-8" standalone="yes"?><svg xmlns="http://www.w3.org/2000/svg" xmlns:xlink="http://www.w3.org/1999/xlink" x="0" y="0" viewBox="0 0 20000 100">
<g transform="translate(0 0)">
  <style type="text/css">
	.st0{fill:none;stroke:#000000;stroke-width:3;stroke-linecap:round;stroke-miterlimit:10;}
	.st1{fill:none;stroke:#000000;stroke-width:2;stroke-linecap:round;stroke-miterlimit:10;}
	.st2{fill:none;stroke:#000000;stroke-width:4;stroke-linecap:round;stroke-miterlimit:10;}
	.st3{fill:none;stroke:#FFFFFF;stroke-width:2;stroke-linecap:round;stroke-miterlimit:10;}
	.st4{fill:none;stroke:#FFFFFF;stroke-width:1.5;stroke-linecap:round;stroke-miterlimit:10;}
	.st5{fill:#FFFFFF;}
	.st6{fill:none;stroke:#000000;stroke-width:5;stroke-linecap:round;stroke-miterlimit:10;}
	.st7{fill:none;stroke:#FFFFFF;stroke-width:3;stroke-linecap:round;stroke-miterlimit:10;}
	.st8{fill:none;stroke:#FFFFFF;stroke-linecap:round;stroke-miterlimit:10;}
	.st9{fill:#FF0000;}
	.st10{fill:#3FA9F5;}
	.st11{fill:#00FFFF;}
	.st12{fill:#F7FF8A;}
	.st13{fill:none;stroke:#000000;stroke-width:2.5;stroke-linecap:round;stroke-miterlimit:10;}
	.st14{fill:none;stroke:#000000;stroke-width:2.5;stroke-linecap:round;stroke-miterlimit:10;stroke-dasharray:3.3655,6.731;}
	.st15{fill:none;stroke:#FFFFFF;stroke-width:2.5;stroke-linecap:round;stroke-miterlimit:10;}
	.st16{fill:none;stroke:#FFFFFF;stroke-width:1.5;stroke-linecap:round;stroke-miterlimit:10;stroke-dasharray:2.7782,5.5565;}
	.st17{fill:none;stroke:#FFFFFF;stroke-width:2.2105;stroke-linecap:round;stroke-miterlimit:10;}
	.st18{fill:none;stroke:#FFFFFF;stroke-width:2.9474;stroke-linecap:round;stroke-miterlimit:10;}
</style>
  <path d="M50,6.4c24.9,0,45,19.5,45,43.6c0,24.1-20.1,43.6-45,43.6V6.4z" fill="#999999"/>
  <g>
    <path class="st5" d="M62.2,39.8c0.4-0.4,0.9-0.7,1.4-1c0.5-0.3,1-0.6,1.6-0.9s1.2-0.4,1.9-0.6c0.7-0.1,1.4-0.2,2.2-0.2
		c1.1,0,2,0.1,2.9,0.4c0.9,0.3,1.6,0.7,2.2,1.2c0.6,0.5,1.1,1.2,1.4,2c0.3,0.8,0.5,1.6,0.5,2.6c0,0.9-0.1,1.7-0.4,2.4
		c-0.3,0.7-0.6,1.3-1,1.8c-0.4,0.5-0.8,0.9-1.3,1.3c-0.5,0.4-0.9,0.7-1.4,1c-0.4,0.3-0.8,0.6-1.1,0.9s-0.5,0.7-0.6,1l-0.4,2.7H67
		l-0.3-3c-0.1-0.6,0-1.1,0.2-1.5c0.2-0.4,0.6-0.8,0.9-1.2c0.4-0.4,0.8-0.7,1.3-1c0.5-0.3,0.9-0.7,1.4-1.1c0.4-0.4,0.8-0.8,1.1-1.3
		c0.3-0.5,0.4-1.1,0.4-1.8c0-0.4-0.1-0.8-0.2-1.2c-0.2-0.3-0.4-0.6-0.7-0.9c-0.3-0.2-0.6-0.4-1-0.6c-0.4-0.1-0.8-0.2-1.3-0.2
		c-0.7,0-1.3,0.1-1.8,0.2s-0.9,0.3-1.2,0.5c-0.3,0.2-0.6,0.4-0.8,0.5c-0.2,0.2-0.4,0.2-0.6,0.2c-0.4,0-0.8-0.2-0.9-0.5L62.2,39.8z
		 M65.6,61.2c0-0.4,0.1-0.7,0.2-1.1c0.1-0.3,0.3-0.6,0.6-0.9c0.2-0.2,0.5-0.4,0.9-0.6c0.3-0.1,0.7-0.2,1.1-0.2
		c0.4,0,0.7,0.1,1.1,0.2c0.3,0.1,0.6,0.3,0.9,0.6c0.2,0.2,0.4,0.5,0.6,0.9c0.1,0.3,0.2,0.7,0.2,1.1c0,0.4-0.1,0.7-0.2,1.1
		c-0.1,0.3-0.3,0.6-0.6,0.9c-0.2,0.2-0.5,0.4-0.9,0.6c-0.3,0.1-0.7,0.2-1.1,0.2c-0.4,0-0.8-0.1-1.1-0.2c-0.3-0.1-0.6-0.3-0.9-0.6
		c-0.2-0.2-0.4-0.5-0.6-0.9C65.7,61.9,65.6,61.6,65.6,61.2z" fill="#999999"/>
  </g>
</g>

<g transform="translate(100 0)">
  <style type="text/css">
	.st0{fill:none;stroke:#000000;stroke-width:3;stroke-linecap:round;stroke-miterlimit:10;}
	.st1{fill:none;stroke:#000000;stroke-width:2;stroke-linecap:round;stroke-miterlimit:10;}
	.st2{fill:none;stroke:#000000;stroke-width:4;stroke-linecap:round;stroke-miterlimit:10;}
	.st3{fill:none;stroke:#FFFFFF;stroke-width:2;stroke-linecap:round;stroke-miterlimit:10;}
	.st4{fill:none;stroke:#FFFFFF;stroke-width:1.5;stroke-linecap:round;stroke-miterlimit:10;}
	.st5{fill:#FFFFFF;}
	.st6{fill:none;stroke:#000000;stroke-width:5;stroke-linecap:round;stroke-miterlimit:10;}
	.st7{fill:none;stroke:#FFFFFF;stroke-width:3;stroke-linecap:round;stroke-miterlimit:10;}
	.st8{fill:none;stroke:#FFFFFF;stroke-linecap:round;stroke-miterlimit:10;}
	.st9{fill:#FF0000;}
	.st10{fill:#3FA9F5;}
	.st11{fill:#00FFFF;}
	.st12{fill:#F7FF8A;}
	.st13{fill:none;stroke:#000000;stroke-width:2.5;stroke-linecap:round;stroke-miterlimit:10;}
	.st14{fill:none;stroke:#000000;stroke-width:2.5;stroke-linecap:round;stroke-miterlimit:10;stroke-dasharray:3.3655,6.731;}
	.st15{fill:none;stroke:#FFFFFF;stroke-width:2.5;stroke-linecap:round;stroke-miterlimit:10;}
	.st16{fill:none;stroke:#FFFFFF;stroke-width:1.5;stroke-linecap:round;stroke-miterlimit:10;stroke-dasharray:2.7782,5.5565;}
	.st17{fill:none;stroke:#FFFFFF;stroke-width:2.2105;stroke-linecap:round;stroke-miterlimit:10;}
	.st18{fill:none;stroke:#FFFFFF;stroke-width:2.9474;stroke-linecap:round;stroke-miterlimit:10;}
</style>
  <path d="M50,6.4c24.9,0,45,19.5,45,43.6c0,24.1-20.1,43.6-45,43.6V6.4z" fill="#999999"/>
  <path class="st5" d="M68.6,22H59c-1.6,0-3,1.3-3,3v4.8c0,1.6,1.3,3,3,3h9.6c1.6,0,3-1.3,3-3V25C71.5,23.4,70.2,22,68.6,22z
	 M64.8,31.4l-0.6-2h-2.6l-0.6,2h-1.6l2.5-7.9h1.9l2.5,7.9H64.8z" fill="#999999"/>
  <path class="st5" d="M62.9,24.7L62.9,24.7c-0.2,0.9-0.5,1.8-0.7,2.6L62,28.1h1.9l-0.2-0.9C63.4,26.5,63.2,25.6,62.9,24.7z" fill="#999999"/>
  <path class="st5" d="M56,40.1v4.8c0,1.6,1.3,3,3,3h15.4c1.6,0,3-1.3,3-3v-4.8c0-1.6-1.3-3-3-3H59C57.3,37.1,56,38.4,56,40.1z
	 M62.9,46.4h-2.8v-7.9h2.6c1.6,0,2.9,0.5,2.9,1.9c0,0.7-0.4,1.5-1.1,1.7v0.1c0.9,0.2,1.5,0.8,1.5,1.9C66,45.7,64.7,46.4,62.9,46.4z" fill="#999999"/>
  <path class="st5" d="M62.8,42.9h-1.1v2.3h1.1c1.1,0,1.7-0.4,1.7-1.2C64.5,43.2,63.9,42.9,62.8,42.9z" fill="#999999"/>
  <path class="st5" d="M64.1,40.7c0-0.7-0.5-1-1.4-1h-0.9v2h0.9C63.6,41.7,64.1,41.3,64.1,40.7z" fill="#999999"/>
  <path class="st5" d="M64.5,72.5c0-1.9-0.9-2.7-2.4-2.7h-0.5v5.4h0.5C63.6,75.2,64.5,74.4,64.5,72.5z" fill="#999999"/>
  <path class="st5" d="M59.2,78h7.8c1.6,0,3-1.3,3-3v-4.8c0-1.6-1.3-3-3-3h-7.8c-1.6,0-3,1.3-3,3V75C56.2,76.6,57.5,78,59.2,78z
	 M60,68.6h2.2c2.4,0,3.9,1.3,3.9,3.9c0,2.7-1.5,4-3.8,4H60V68.6z" fill="#999999"/>
  <path class="st5" d="M59.4,62.9h12.7c1.6,0,3-1.3,3-3v-4.8c0-1.6-1.3-3-3-3H59.4c-1.6,0-3,1.3-3,3v4.8
	C56.4,61.6,57.8,62.9,59.4,62.9z M63.5,53.3c1,0,1.8,0.5,2.3,1l-0.8,1c-0.4-0.4-0.9-0.7-1.5-0.7c-1.2,0-2.1,1-2.1,2.7
	c0,1.7,0.8,2.8,2.1,2.8c0.7,0,1.2-0.3,1.6-0.8l0.8,1c-0.7,0.8-1.5,1.2-2.5,1.2c-2,0-3.6-1.4-3.6-4.1C59.9,54.8,61.5,53.3,63.5,53.3z
	" fill="#999999"/>
</g>

<g transform="translate(200 0)">
  <style type="text/css">
	.st0{fill:none;stroke:#000000;stroke-width:3;stroke-linecap:round;stroke-miterlimit:10;}
	.st1{fill:none;stroke:#000000;stroke-width:2;stroke-linecap:round;stroke-miterlimit:10;}
	.st2{fill:none;stroke:#000000;stroke-width:4;stroke-linecap:round;stroke-miterlimit:10;}
	.st3{fill:none;stroke:#FFFFFF;stroke-width:2;stroke-linecap:round;stroke-miterlimit:10;}
	.st4{fill:none;stroke:#FFFFFF;stroke-width:1.5;stroke-linecap:round;stroke-miterlimit:10;}
	.st5{fill:#FFFFFF;}
	.st6{fill:none;stroke:#000000;stroke-width:5;stroke-linecap:round;stroke-miterlimit:10;}
	.st7{fill:none;stroke:#FFFFFF;stroke-width:3;stroke-linecap:round;stroke-miterlimit:10;}
	.st8{fill:none;stroke:#FFFFFF;stroke-linecap:round;stroke-miterlimit:10;}
	.st9{fill:#FF0000;}
	.st10{fill:#3FA9F5;}
	.st11{fill:#00FFFF;}
	.st12{fill:#F7FF8A;}
	.st13{fill:none;stroke:#000000;stroke-width:2.5;stroke-linecap:round;stroke-miterlimit:10;}
	.st14{fill:none;stroke:#000000;stroke-width:2.5;stroke-linecap:round;stroke-miterlimit:10;stroke-dasharray:3.3655,6.731;}
	.st15{fill:none;stroke:#FFFFFF;stroke-width:2.5;stroke-linecap:round;stroke-miterlimit:10;}
	.st16{fill:none;stroke:#FFFFFF;stroke-width:1.5;stroke-linecap:round;stroke-miterlimit:10;stroke-dasharray:2.7782,5.5565;}
	.st17{fill:none;stroke:#FFFFFF;stroke-width:2.2105;stroke-linecap:round;stroke-miterlimit:10;}
	.st18{fill:none;stroke:#FFFFFF;stroke-width:2.9474;stroke-linecap:round;stroke-miterlimit:10;}
</style>
  <path d="M50,6.4c24.9,0,45,19.5,45,43.6c0,24.1-20.1,43.6-45,43.6V6.4z" fill="#999999"/>
  <line class="st7" x1="61.6" y1="30.7" x2="72.2" y2="30.7" fill="#999999"/>
  <line class="st7" x1="68.1" y1="40.3" x2="85" y2="40.3" fill="#999999"/>
  <line class="st7" x1="64.9" y1="50" x2="79.3" y2="50" fill="#999999"/>
  <line class="st7" x1="57.2" y1="59.7" x2="65" y2="59.7" fill="#999999"/>
  <line class="st7" x1="60.3" y1="69.3" x2="73.9" y2="69.3" fill="#999999"/>
</g>

<g transform="translate(300 0)">
  <style type="text/css">
	.st0{fill:none;stroke:#000000;stroke-width:3;stroke-linecap:round;stroke-miterlimit:10;}
	.st1{fill:none;stroke:#000000;stroke-width:2;stroke-linecap:round;stroke-miterlimit:10;}
	.st2{fill:none;stroke:#000000;stroke-width:4;stroke-linecap:round;stroke-miterlimit:10;}
	.st3{fill:none;stroke:#FFFFFF;stroke-width:2;stroke-linecap:round;stroke-miterlimit:10;}
	.st4{fill:none;stroke:#FFFFFF;stroke-width:1.5;stroke-linecap:round;stroke-miterlimit:10;}
	.st5{fill:#FFFFFF;}
	.st6{fill:none;stroke:#000000;stroke-width:5;stroke-linecap:round;stroke-miterlimit:10;}
	.st7{fill:none;stroke:#FFFFFF;stroke-width:3;stroke-linecap:round;stroke-miterlimit:10;}
	.st8{fill:none;stroke:#FFFFFF;stroke-linecap:round;stroke-miterlimit:10;}
	.st9{fill:#FF0000;}
	.st10{fill:#3FA9F5;}
	.st11{fill:#00FFFF;}
	.st12{fill:#F7FF8A;}
	.st13{fill:none;stroke:#000000;stroke-width:2.5;stroke-linecap:round;stroke-miterlimit:10;}
	.st14{fill:none;stroke:#000000;stroke-width:2.5;stroke-linecap:round;stroke-miterlimit:10;stroke-dasharray:3.3655,6.731;}
	.st15{fill:none;stroke:#FFFFFF;stroke-width:2.5;stroke-linecap:round;stroke-miterlimit:10;}
	.st16{fill:none;stroke:#FFFFFF;stroke-width:1.5;stroke-linecap:round;stroke-miterlimit:10;stroke-dasharray:2.7782,5.5565;}
	.st17{fill:none;stroke:#FFFFFF;stroke-width:2.2105;stroke-linecap:round;stroke-miterlimit:10;}
	.st18{fill:none;stroke:#FFFFFF;stroke-width:2.9474;stroke-linecap:round;stroke-miterlimit:10;}
</style>
  <path d="M50,6.4c24.9,0,45,19.5,45,43.6c0,24.1-20.1,43.6-45,43.6V6.4z" fill="#999999"/>
  <g>
    <path class="st5" d="M65.9,31.5v5.6H65v-0.7h-3.4v3.9h-0.9v-3.9h-3.4v0.7h-0.9v-5.7h4.3v-2.1h0.9v2.1H65.9z M60.7,35.5v-3.2h-3.4
		v3.2H60.7z M65,35.5v-3.2h-3.4v3.2H65z" fill="#999999"/>
    <path class="st5" d="M76.7,32.3c-0.7,1.9-1.6,3.4-2.8,4.6c1.3,1.1,2.9,2,4.8,2.4c-0.2,0.2-0.5,0.6-0.6,0.8c-2-0.6-3.6-1.4-4.9-2.6
		c-1.3,1.2-3,2-5,2.7c-0.1-0.2-0.4-0.6-0.6-0.8c2-0.6,3.6-1.4,4.9-2.5c-1.2-1.3-2.2-2.8-2.9-4.6h-1.8v-0.9h10.7v0.9H76.7z
		 M70.6,32.3c0.6,1.5,1.5,2.9,2.6,4c1.1-1.1,1.9-2.4,2.5-4H70.6z M73.1,31.4c-0.1-0.5-0.5-1.3-0.9-1.9l0.9-0.3
		c0.4,0.6,0.8,1.3,0.9,1.8L73.1,31.4z" fill="#999999"/>
    <path class="st5" d="M63.4,47.9c1.5,0.4,2.4,1.5,2.4,2.8c0,1.7-1.1,3.2-3.9,3.6l-0.5-0.8c2.1-0.2,3.5-1.3,3.5-2.9
		c0-0.9-0.6-1.7-1.7-2c-0.7,1.7-1.6,3-2.6,3.8c0.1,0.3,0.2,0.7,0.3,1L60,53.7c-0.1-0.2-0.1-0.4-0.2-0.7c-0.6,0.4-1.4,0.6-2,0.6
		c-0.8,0-1.4-0.5-1.4-1.5c0-1.5,1.3-3.1,3-3.8c0-0.6,0.1-1.2,0.1-1.8c-0.3,0-0.5,0-0.7,0c-0.5,0-1.4,0-1.9-0.1l0-0.9
		c0.4,0.1,1.5,0.1,2,0.1c0.3,0,0.5,0,0.8,0c0-0.3,0.1-0.7,0.1-0.9c0-0.2,0-0.4,0-0.6l1,0c-0.1,0.2-0.1,0.4-0.1,0.5
		c0,0.3-0.1,0.6-0.1,0.9c1.5-0.1,2.9-0.2,4.2-0.5l0,0.9c-1.2,0.2-2.8,0.4-4.3,0.4c0,0.5-0.1,1-0.1,1.5c0.7-0.2,1.4-0.3,2-0.3
		c0.1,0,0.3,0,0.4,0l0-0.1c0-0.2,0.1-0.5,0.1-0.7l1,0.2C63.6,47.3,63.5,47.7,63.4,47.9L63.4,47.9z M59.3,49.3c-1.2,0.7-2,1.8-2,2.8
		c0,0.5,0.2,0.7,0.7,0.7c0.5,0,1-0.2,1.6-0.6c-0.2-0.9-0.3-1.8-0.3-2.7V49.3z M62.1,48.5c-0.8,0-1.5,0.2-2,0.4c0,0.2,0,0.3,0,0.5
		c0,0.8,0.1,1.5,0.2,2.2c0.8-0.7,1.5-1.7,2-3H62.1z" fill="#999999"/>
    <path class="st5" d="M69.2,46.6c0,0.7,0,1.8,0.1,2.8c0.2,2,0.8,3.3,1.6,3.3c0.6,0,1.2-1.2,1.5-2.4l0.8,0.9c-0.7,2-1.4,2.7-2.3,2.7
		c-1.1,0-2.2-1.1-2.5-4.2c-0.1-1-0.1-2.5-0.1-3.2c0-0.3,0-0.8-0.1-1.1l1.2,0C69.3,45.7,69.2,46.3,69.2,46.6z M77.6,51.6l-1,0.4
		c-0.2-2.1-0.9-4.5-2.1-5.9l0.9-0.3C76.6,47.1,77.4,49.6,77.6,51.6z" fill="#999999"/>
    <path class="st5" d="M83.8,48.1c-1.4,0-2.5,0.4-3.2,0.6c-0.4,0.1-0.7,0.2-1,0.3l-0.3-1.1c0.3,0,0.7-0.1,1.1-0.2
		c0.8-0.2,2.2-0.6,3.5-0.6c1.7,0,3,0.9,3,2.6c0,2.6-2.3,4-5.4,4.5l-0.6-0.9c2.9-0.4,4.9-1.5,4.9-3.6C85.8,48.8,85,48.1,83.8,48.1z
		 M85.9,45l-0.1,0.9c-1.3-0.1-3.7-0.3-5.1-0.6l0.2-0.9C82.2,44.7,84.8,45,85.9,45z" fill="#999999"/>
    <path class="st5" d="M60.4,65.5h-3.2l-0.9,2.7h-1.1l3-8.8h1.2l3,8.8h-1.2L60.4,65.5z M60.1,64.6l-0.4-1.3c-0.3-1-0.6-2-0.9-3h0
		c-0.3,1-0.6,2-0.9,3l-0.4,1.3H60.1z" fill="#999999"/>
    <path class="st5" d="M63.7,59.4h2.6c1.8,0,3,0.6,3,2.1c0,0.9-0.5,1.6-1.3,1.9v0.1c1.1,0.2,1.8,0.9,1.8,2.1c0,1.7-1.4,2.6-3.3,2.6
		h-2.8V59.4z M66.1,63.1c1.5,0,2.1-0.6,2.1-1.5c0-1-0.7-1.4-2.1-1.4h-1.4v2.9H66.1z M66.3,67.3c1.5,0,2.4-0.5,2.4-1.7
		c0-1.1-0.9-1.6-2.4-1.6h-1.5v3.3H66.3z" fill="#999999"/>
    <path class="st5" d="M71,63.8c0-2.8,1.7-4.6,3.9-4.6c1.1,0,1.9,0.5,2.4,1.1L76.7,61c-0.5-0.5-1-0.8-1.8-0.8c-1.7,0-2.8,1.4-2.8,3.6
		c0,2.2,1.1,3.6,2.7,3.6c0.8,0,1.5-0.4,2-1l0.6,0.7c-0.7,0.8-1.6,1.3-2.7,1.3C72.7,68.3,71,66.7,71,63.8z" fill="#999999"/>
  </g>
</g>

<g transform="translate(400 0)">
  <style type="text/css">
	.st0{fill:none;stroke:#000000;stroke-width:3;stroke-linecap:round;stroke-miterlimit:10;}
	.st1{fill:none;stroke:#000000;stroke-width:2;stroke-linecap:round;stroke-miterlimit:10;}
	.st2{fill:none;stroke:#000000;stroke-width:4;stroke-linecap:round;stroke-miterlimit:10;}
	.st3{fill:none;stroke:#FFFFFF;stroke-width:2;stroke-linecap:round;stroke-miterlimit:10;}
	.st4{fill:none;stroke:#FFFFFF;stroke-width:1.5;stroke-linecap:round;stroke-miterlimit:10;}
	.st5{fill:#FFFFFF;}
	.st6{fill:none;stroke:#000000;stroke-width:5;stroke-linecap:round;stroke-miterlimit:10;}
	.st7{fill:none;stroke:#FFFFFF;stroke-width:3;stroke-linecap:round;stroke-miterlimit:10;}
	.st8{fill:none;stroke:#FFFFFF;stroke-linecap:round;stroke-miterlimit:10;}
	.st9{fill:#FF0000;}
	.st10{fill:#3FA9F5;}
	.st11{fill:#00FFFF;}
	.st12{fill:#F7FF8A;}
	.st13{fill:none;stroke:#000000;stroke-width:2.5;stroke-linecap:round;stroke-miterlimit:10;}
	.st14{fill:none;stroke:#000000;stroke-width:2.5;stroke-linecap:round;stroke-miterlimit:10;stroke-dasharray:3.3655,6.731;}
	.st15{fill:none;stroke:#FFFFFF;stroke-width:2.5;stroke-linecap:round;stroke-miterlimit:10;}
	.st16{fill:none;stroke:#FFFFFF;stroke-width:1.5;stroke-linecap:round;stroke-miterlimit:10;stroke-dasharray:2.7782,5.5565;}
	.st17{fill:none;stroke:#FFFFFF;stroke-width:2.2105;stroke-linecap:round;stroke-miterlimit:10;}
	.st18{fill:none;stroke:#FFFFFF;stroke-width:2.9474;stroke-linecap:round;stroke-miterlimit:10;}
</style>
  <path d="M50,6.4c24.9,0,45,19.5,45,43.6c0,24.1-20.1,43.6-45,43.6V6.4z" fill="#999999"/>
  <g>
    <path class="st5" d="M65.6,69.2c2.5-0.6,4.3-2.8,4.3-5.5s-1.8-4.9-4.3-5.5v-6.4c2.5-0.6,4.3-2.8,4.3-5.5c0-2.6-1.8-4.9-4.3-5.5
		v-6.4c2.5-0.6,4.3-2.8,4.3-5.5s-1.8-4.9-4.3-5.5v-2.9c0-0.7-0.6-1.3-1.3-1.3c-0.7,0-1.3,0.6-1.3,1.3v2.9c-2.5,0.6-4.3,2.8-4.3,5.5
		s1.8,4.9,4.3,5.5V41c-2.5,0.6-4.3,2.8-4.3,5.5c0,2.6,1.8,4.9,4.3,5.5v6.4c-2.5,0.6-4.3,2.8-4.3,5.5s1.8,4.9,4.3,5.5v5h-5l6.3,6.3
		l6.3-6.3h-5V69.2z M63,61c0.4-0.2,0.8-0.3,1.3-0.3s0.9,0.1,1.3,0.3c1,0.5,1.7,1.5,1.7,2.7c0,1.2-0.7,2.2-1.7,2.7
		c-0.4,0.2-0.8,0.3-1.3,0.3s-0.9-0.1-1.3-0.3c-1-0.5-1.7-1.5-1.7-2.7C61.3,62.6,62,61.5,63,61z M63,43.8c0.4-0.2,0.8-0.3,1.3-0.3
		s0.9,0.1,1.3,0.3c1,0.5,1.7,1.5,1.7,2.7s-0.7,2.2-1.7,2.7c-0.4,0.2-0.8,0.3-1.3,0.3s-0.9-0.1-1.3-0.3c-1-0.5-1.7-1.5-1.7-2.7
		S62,44.3,63,43.8z M63,26.5c0.4-0.2,0.8-0.3,1.3-0.3s0.9,0.1,1.3,0.3c1,0.5,1.7,1.5,1.7,2.7s-0.7,2.2-1.7,2.7
		c-0.4,0.2-0.8,0.3-1.3,0.3s-0.9-0.1-1.3-0.3c-1-0.5-1.7-1.5-1.7-2.7S62,27,63,26.5z" fill="#999999"/>
    <path class="st5" d="M77.5,32h-1.4v-6.4H75c-0.5,0.3-1,0.5-1.8,0.6v0.9h1.4V32h-1.6v1.2h4.6V32z" fill="#999999"/>
    <path class="st5" d="M76,49.2c-0.4,0-0.9,0-1.2,0.1c1.4-1.4,2.5-2.9,2.5-4.2c0-1.4-1-2.4-2.4-2.4c-1,0-1.7,0.4-2.4,1.2l0.8,0.8
		c0.4-0.4,0.8-0.8,1.4-0.8c0.7,0,1.1,0.5,1.1,1.2c0,1.2-1.2,2.6-3.3,4.5v0.9h5.1v-1.3H76z" fill="#999999"/>
    <path class="st5" d="M76.1,63.8L76.1,63.8c0.8-0.4,1.3-1,1.3-1.8c0-1.3-1-2-2.5-2c-0.9,0-1.6,0.4-2.3,0.9l0.8,0.9
		c0.5-0.4,0.9-0.7,1.4-0.7c0.7,0,1,0.4,1,1c0,0.7-0.5,1.2-1.9,1.2v1.1c1.7,0,2.1,0.5,2.1,1.2c0,0.7-0.5,1.1-1.3,1.1
		c-0.7,0-1.3-0.3-1.7-0.8l-0.7,1c0.5,0.6,1.4,1.1,2.6,1.1c1.5,0,2.7-0.8,2.7-2.2C77.6,64.7,76.9,64,76.1,63.8z" fill="#999999"/>
  </g>
</g>

<g transform="translate(500 0)">
  <style type="text/css">
	.st0{fill:none;stroke:#000000;stroke-width:3;stroke-linecap:round;stroke-miterlimit:10;}
	.st1{fill:none;stroke:#000000;stroke-width:2;stroke-linecap:round;stroke-miterlimit:10;}
	.st2{fill:none;stroke:#000000;stroke-width:4;stroke-linecap:round;stroke-miterlimit:10;}
	.st3{fill:none;stroke:#FFFFFF;stroke-width:2;stroke-linecap:round;stroke-miterlimit:10;}
	.st4{fill:none;stroke:#FFFFFF;stroke-width:1.5;stroke-linecap:round;stroke-miterlimit:10;}
	.st5{fill:#FFFFFF;}
	.st6{fill:none;stroke:#000000;stroke-width:5;stroke-linecap:round;stroke-miterlimit:10;}
	.st7{fill:none;stroke:#FFFFFF;stroke-width:3;stroke-linecap:round;stroke-miterlimit:10;}
	.st8{fill:none;stroke:#FFFFFF;stroke-linecap:round;stroke-miterlimit:10;}
	.st9{fill:#FF0000;}
	.st10{fill:#3FA9F5;}
	.st11{fill:#00FFFF;}
	.st12{fill:#F7FF8A;}
	.st13{fill:none;stroke:#000000;stroke-width:2.5;stroke-linecap:round;stroke-miterlimit:10;}
	.st14{fill:none;stroke:#000000;stroke-width:2.5;stroke-linecap:round;stroke-miterlimit:10;stroke-dasharray:3.3655,6.731;}
	.st15{fill:none;stroke:#FFFFFF;stroke-width:2.5;stroke-linecap:round;stroke-miterlimit:10;}
	.st16{fill:none;stroke:#FFFFFF;stroke-width:1.5;stroke-linecap:round;stroke-miterlimit:10;stroke-dasharray:2.7782,5.5565;}
	.st17{fill:none;stroke:#FFFFFF;stroke-width:2.2105;stroke-linecap:round;stroke-miterlimit:10;}
	.st18{fill:none;stroke:#FFFFFF;stroke-width:2.9474;stroke-linecap:round;stroke-miterlimit:10;}
</style>
  <path d="M50,6.4c24.9,0,45,19.5,45,43.6c0,24.1-20.1,43.6-45,43.6V6.4z" fill="#999999"/>
  <line class="st7" x1="58.3" y1="27.9" x2="71.4" y2="27.9" fill="#999999"/>
  <line class="st7" x1="58.3" y1="38.9" x2="79.4" y2="38.9" fill="#999999"/>
  <line class="st7" x1="58.3" y1="50" x2="76.2" y2="50" fill="#999999"/>
  <line class="st7" x1="58.3" y1="61.1" x2="68" y2="61.1" fill="#999999"/>
  <line class="st7" x1="58.3" y1="72.1" x2="75.2" y2="72.1" fill="#999999"/>
</g></svg>