<?xml version="1.0" encoding="UTF-8" standalone="yes"?><svg xmlns="http://www.w3.org/2000/svg" xmlns:xlink="http://www.w3.org/1999/xlink" x="0" y="0" viewBox="0 0 20000 100">
<g transform="translate(0 0)">
  <path d="M87.5,92.5h-75c-1.4,0-2.5-1.1-2.5-2.5v0c0-1.4,1.1-2.5,2.5-2.5h75c1.4,0,2.5,1.1,2.5,2.5v0C90,91.4,88.9,92.5,87.5,92.5z" fill="#29abe1"/>
  <path d="M37.5,22.5h-15c-1.4,0-2.5-1.1-2.5-2.5v0c0-1.4,1.1-2.5,2.5-2.5h15c1.4,0,2.5,1.1,2.5,2.5v0C40,21.4,38.9,22.5,37.5,22.5z" fill="#29abe1"/>
  <path d="M77.5,52.5h-15c-1.4,0-2.5-1.1-2.5-2.5v0c0-1.4,1.1-2.5,2.5-2.5h15c1.4,0,2.5,1.1,2.5,2.5v0C80,51.4,78.9,52.5,77.5,52.5z" fill="#29abe1"/>
  <g>
    <g>
      <line fill="none" stroke="#000000" stroke-width="3" stroke-miterlimit="10" x1="30" y1="28.5" x2="30" y2="81.5"/>
      <g>
        <polygon points="25.5,29.8 30,22 34.5,29.8 			" fill="#29abe1"/>
      </g>
      <g>
        <polygon points="25.5,80.2 30,88 34.5,80.2 			" fill="#29abe1"/>
      </g>
    </g>
  </g>
  <g>
    <g>
      <line fill="none" stroke="#000000" stroke-width="3" stroke-miterlimit="10" x1="70" y1="58.5" x2="70" y2="81.5"/>
      <g>
        <polygon points="65.5,59.8 70,52 74.5,59.8 			" fill="#29abe1"/>
      </g>
      <g>
        <polygon points="65.5,80.2 70,88 74.5,80.2 			" fill="#29abe1"/>
      </g>
    </g>
  </g>
</g>

<g transform="translate(100 0)">
  <path d="M92.8,89H6.5c-1.2,0-1.9-1.3-1.3-2.3L48.4,12c0.6-1,1.9-1.4,3-0.8l0,0c1,0.6,1.4,1.9,0.8,3L11.5,84.7h81.4
	c1.2,0,2.2,1,2.2,2.2l0,0C95,88.1,94,89,92.8,89z" fill="#29abe1"/>
  <g>
    <path d="M56.2,77.1c-1.8-10.6-7.4-20.3-15.7-27.2l1.4-1.7c8.7,7.3,14.6,17.4,16.5,28.6L56.2,77.1z" fill="#29abe1"/>
    <g>
      <polygon points="39.2,54.4 34.7,44.5 45.5,45.6 		" fill="#29abe1"/>
    </g>
    <g>
      <polygon points="51.6,75.8 57.9,84.7 62.4,74.8 		" fill="#29abe1"/>
    </g>
  </g>
</g>

<g transform="translate(200 0)">
  <circle cx="47" cy="70.5" r="24.5" fill="#29abe1"/>
  <circle cx="80.8" cy="68.1" r="8" fill="#29abe1"/>
  <circle cx="76.8" cy="47.5" r="12" fill="#29abe1"/>
  <circle cx="52.3" cy="25" r="20" fill="#29abe1"/>
  <circle cx="23.3" cy="41.1" r="12.1" fill="#29abe1"/>
  <circle cx="75.5" cy="81" r="5" fill="#29abe1"/>
</g>

<g transform="translate(300 0)">
  <path fill="#FF0000" d="M75.5,24.5C68.7,17.7,59.6,14,50,14V5c12,0,23.3,4.7,31.8,13.2L75.5,24.5z"/>
  <path fill="#FF00FF" d="M50,14c-9.6,0-18.7,3.7-25.5,10.5l-6.4-6.4C26.7,9.7,38,5,50,5L50,14z"/>
  <path fill="#5500FF" d="M24.5,24.5C17.7,31.3,14,40.4,14,50H5c0-12,4.7-23.3,13.2-31.8L24.5,24.5z"/>
  <path fill="#0080FF" d="M14,50c0,9.6,3.7,18.7,10.5,25.5l-6.4,6.4C9.7,73.3,5,62,5,50L14,50z"/>
  <path fill="#00FFD5" d="M24.5,75.5C31.3,82.3,40.4,86,50,86v9c-12,0-23.3-4.7-31.8-13.2L24.5,75.5z"/>
  <path fill="#55FF00" d="M50,86c9.6,0,18.7-3.7,25.5-10.5l6.4,6.4C73.3,90.3,62,95,50,95L50,86z"/>
  <path fill="#FFFF00" d="M75.5,75.5C82.3,68.7,86,59.6,86,50h9c0,12-4.7,23.3-13.2,31.8L75.5,75.5z"/>
  <path fill="#FF9500" d="M86,50c0-9.6-3.7-18.7-10.5-25.5l6.4-6.4C90.3,26.7,95,38,95,50L86,50z"/>
</g>

<g transform="translate(400 0)">
  <g>
    <g>
      <line fill="none" stroke="#000000" stroke-width="4" stroke-miterlimit="10" x1="50" y1="22.5" x2="50" y2="63"/>
      <g>
        <polygon points="42,24.8 50,11 58,24.8 			" fill="#29abe1"/>
      </g>
    </g>
  </g>
  <g>
    <g>
      <line fill="none" stroke="#000000" stroke-width="4" stroke-miterlimit="10" x1="14.9" y1="83.2" x2="50" y2="63"/>
      <g>
        <polygon points="21,89 5,89 13,75.2 			" fill="#29abe1"/>
      </g>
    </g>
  </g>
  <g>
    <g>
      <line fill="none" stroke="#000000" stroke-width="4" stroke-miterlimit="10" x1="85.1" y1="83.2" x2="50" y2="63"/>
      <g>
        <polygon points="87,75.2 95,89 79,89 			" fill="#29abe1"/>
      </g>
    </g>
  </g>
</g>

<g transform="translate(500 0)">
  <path fill="#FF0000" d="M75.5,24.5C68.7,17.7,59.6,14,50,14V5c12,0,23.3,4.7,31.8,13.2L75.5,24.5z"/>
  <path fill="#FF00FF" d="M50,14c-9.6,0-18.7,3.7-25.5,10.5l-6.4-6.4C26.7,9.7,38,5,50,5L50,14z"/>
  <path fill="#5500FF" d="M24.5,24.5C17.7,31.3,14,40.4,14,50H5c0-12,4.7-23.3,13.2-31.8L24.5,24.5z"/>
  <path fill="#0080FF" d="M14,50c0,9.6,3.7,18.7,10.5,25.5l-6.4,6.4C9.7,73.3,5,62,5,50L14,50z"/>
  <path fill="#00FFD5" d="M24.5,75.5C31.3,82.3,40.4,86,50,86v9c-12,0-23.3-4.7-31.8-13.2L24.5,75.5z"/>
  <path fill="#55FF00" d="M50,86c9.6,0,18.7-3.7,25.5-10.5l6.4,6.4C73.3,90.3,62,95,50,95L50,86z"/>
  <path fill="#FFFF00" d="M75.5,75.5C82.3,68.7,86,59.6,86,50h9c0,12-4.7,23.3-13.2,31.8L75.5,75.5z"/>
  <path fill="#FF9500" d="M86,50c0-9.6-3.7-18.7-10.5-25.5l6.4-6.4C90.3,26.7,95,38,95,50L86,50z"/>
</g>

<g transform="translate(600 0)">
  <path d="M37.5,17.5h-15c-1.4,0-2.5-1.1-2.5-2.5v0c0-1.4,1.1-2.5,2.5-2.5h15c1.4,0,2.5,1.1,2.5,2.5v0C40,16.4,38.9,17.5,37.5,17.5z" fill="#29abe1"/>
  <path d="M77.5,27.5h-15c-1.4,0-2.5-1.1-2.5-2.5v0c0-1.4,1.1-2.5,2.5-2.5h15c1.4,0,2.5,1.1,2.5,2.5v0C80,26.4,78.9,27.5,77.5,27.5z" fill="#29abe1"/>
  <path d="M37.5,87.5h-15c-1.4,0-2.5-1.1-2.5-2.5v0c0-1.4,1.1-2.5,2.5-2.5h15c1.4,0,2.5,1.1,2.5,2.5v0C40,86.4,38.9,87.5,37.5,87.5z" fill="#29abe1"/>
  <path d="M77.5,67.5h-15c-1.4,0-2.5-1.1-2.5-2.5v0c0-1.4,1.1-2.5,2.5-2.5h15c1.4,0,2.5,1.1,2.5,2.5v0C80,66.4,78.9,67.5,77.5,67.5z" fill="#29abe1"/>
  <g>
    <g>
      <line fill="none" stroke="#000000" stroke-width="3" stroke-miterlimit="10" x1="30" y1="23.5" x2="30" y2="76.5"/>
      <g>
        <polygon points="25.5,24.8 30,17 34.5,24.8 			" fill="#29abe1"/>
      </g>
      <g>
        <polygon points="25.5,75.2 30,83 34.5,75.2 			" fill="#29abe1"/>
      </g>
    </g>
  </g>
  <g>
    <g>
      <line fill="none" stroke="#000000" stroke-width="3" stroke-miterlimit="10" x1="70" y1="33.5" x2="70" y2="56.5"/>
      <g>
        <polygon points="65.5,34.8 70,27 74.5,34.8 			" fill="#29abe1"/>
      </g>
      <g>
        <polygon points="65.5,55.2 70,63 74.5,55.2 			" fill="#29abe1"/>
      </g>
    </g>
  </g>
</g>

<g transform="translate(700 0)">
  <path d="M75.5,24.5C68.7,17.7,59.6,14,50,14V5c12,0,23.3,4.7,31.8,13.2L75.5,24.5z" fill="#29abe1"/>
  <path fill="#EEEEEE" d="M50,14c-9.6,0-18.7,3.7-25.5,10.5l-6.4-6.4C26.7,9.7,38,5,50,5L50,14z"/>
  <path fill="#CCCCCC" d="M24.5,24.5C17.7,31.3,14,40.4,14,50H5c0-12,4.7-23.3,13.2-31.8L24.5,24.5z"/>
  <path fill="#AAAAAA" d="M14,50c0,9.6,3.7,18.7,10.5,25.5l-6.4,6.4C9.7,73.3,5,62,5,50L14,50z"/>
  <path fill="#888888" d="M24.5,75.5C31.3,82.3,40.4,86,50,86v9c-12,0-23.3-4.7-31.8-13.2L24.5,75.5z"/>
  <path fill="#666666" d="M50,86c9.6,0,18.7-3.7,25.5-10.5l6.4,6.4C73.3,90.3,62,95,50,95L50,86z"/>
  <path fill="#444444" d="M75.5,75.5C82.3,68.7,86,59.6,86,50h9c0,12-4.7,23.3-13.2,31.8L75.5,75.5z"/>
  <path fill="#222222" d="M86,50c0-9.6-3.7-18.7-10.5-25.5l6.4-6.4C90.3,26.7,95,38,95,50L86,50z"/>
</g>

<g transform="translate(800 0)">
  <path d="M20,90L20,90c-1.1,0-2-0.9-2-2V12c0-1.1,0.9-2,2-2h0c1.1,0,2,0.9,2,2v76C22,89.1,21.1,90,20,90z" fill="#29abe1"/>
  <path d="M88,82H12c-1.1,0-2-0.9-2-2v0c0-1.1,0.9-2,2-2h76c1.1,0,2,0.9,2,2v0C90,81.1,89.1,82,88,82z" fill="#29abe1"/>
  <circle cx="47.5" cy="28.8" r="5" fill="#29abe1"/>
  <circle cx="65.5" cy="52.8" r="5" fill="#29abe1"/>
  <line fill="none" stroke="#000000" stroke-width="2" stroke-miterlimit="10" stroke-dasharray="3,3" x1="42.6" y1="28.8" x2="20.7" y2="28.8"/>
  <line fill="none" stroke="#000000" stroke-width="2" stroke-miterlimit="10" stroke-dasharray="3,3" x1="47.5" y1="27.6" x2="47.5" y2="78.8"/>
  <line fill="none" stroke="#000000" stroke-width="2" stroke-miterlimit="10" stroke-dasharray="3,3" x1="61" y1="53.3" x2="20.2" y2="53.3"/>
  <line fill="none" stroke="#000000" stroke-width="2" stroke-miterlimit="10" stroke-dasharray="3,3" x1="65.5" y1="57.6" x2="65.5" y2="78.8"/>
</g>

<g transform="translate(900 0)">
  <path fill="#E60000" d="M75.5,24.5C68.7,17.7,59.6,14,50,14V5c12,0,23.3,4.7,31.8,13.2L75.5,24.5z"/>
  <path fill="#E6E6E6" d="M50,14c-9.6,0-18.7,3.7-25.5,10.5l-6.4-6.4C26.7,9.7,38,5,50,5L50,14z"/>
  <path fill="#EBCDCD" d="M24.5,24.5C17.7,31.3,14,40.4,14,50H5c0-12,4.7-23.3,13.2-31.8L24.5,24.5z"/>
  <path fill="#F0B4B4" d="M14,50c0,9.6,3.7,18.7,10.5,25.5l-6.4,6.4C9.7,73.3,5,62,5,50L14,50z"/>
  <path fill="#F59999" d="M24.5,75.5C31.3,82.3,40.4,86,50,86v9c-12,0-23.3-4.7-31.8-13.2L24.5,75.5z"/>
  <path fill="#FA7D7D" d="M50,86c9.6,0,18.7-3.7,25.5-10.5l6.4,6.4C73.3,90.3,62,95,50,95L50,86z"/>
  <path fill="#FF6060" d="M75.5,75.5C82.3,68.7,86,59.6,86,50h9c0,12-4.7,23.3-13.2,31.8L75.5,75.5z"/>
  <path fill="#FF4040" d="M86,50c0-9.6-3.7-18.7-10.5-25.5l6.4-6.4C90.3,26.7,95,38,95,50L86,50z"/>
</g>

<g transform="translate(1000 0)">
  <circle cx="20" cy="50" r="10" fill="#29abe1"/>
  <rect x="40.5" y="40.5" width="19" height="19" fill="#29abe1"/>
  <polygon points="80,40 68.5,60 91.5,60 " fill="#29abe1"/>
</g>

<g transform="translate(1100 0)">
  <polygon fill="none" stroke="#000000" stroke-width="4" stroke-linejoin="round" stroke-miterlimit="10" points="50,95 8.2,74.1 
	8.2,26.1 50,47 "/>
  <polygon fill="none" stroke="#000000" stroke-width="4" stroke-linejoin="round" stroke-miterlimit="10" points="91.8,26.1 50,47 
	50,95 91.8,74.1 "/>
  <polygon fill="none" stroke="#000000" stroke-width="4" stroke-linejoin="round" stroke-miterlimit="10" points="91.8,25.9 50,5 
	8.2,25.9 8.5,26 8.2,26.1 50,47 91.8,26.1 91.5,26 "/>
  <path fill="none" stroke="#000000" stroke-width="4" stroke-linejoin="round" stroke-miterlimit="10" d="M50,47L8.2,26.1L50,47z"/>
</g></svg>