<?xml version="1.0" encoding="UTF-8" standalone="yes"?><svg xmlns="http://www.w3.org/2000/svg" xmlns:xlink="http://www.w3.org/1999/xlink" x="0" y="0" viewBox="0 0 20000 100">
<g transform="translate(0 0)">
  <style type="text/css">
	.st0{fill:none;stroke:#000000;stroke-width:3;stroke-linecap:round;stroke-miterlimit:10;}
	.st1{fill:none;stroke:#000000;stroke-width:2;stroke-linecap:round;stroke-miterlimit:10;}
	.st2{fill:none;stroke:#000000;stroke-width:4;stroke-linecap:round;stroke-miterlimit:10;}
	.st3{fill:none;stroke:#FFFFFF;stroke-width:2;stroke-linecap:round;stroke-miterlimit:10;}
	.st4{fill:none;stroke:#FFFFFF;stroke-width:1.5;stroke-linecap:round;stroke-miterlimit:10;}
	.st5{fill:#FFFFFF;}
	.st6{fill:none;stroke:#000000;stroke-width:5;stroke-linecap:round;stroke-miterlimit:10;}
	.st7{fill:none;stroke:#FFFFFF;stroke-width:3;stroke-linecap:round;stroke-miterlimit:10;}
	.st8{fill:none;stroke:#FFFFFF;stroke-linecap:round;stroke-miterlimit:10;}
	.st9{fill:#FF0000;}
	.st10{fill:#3FA9F5;}
	.st11{fill:#00FFFF;}
	.st12{fill:#F7FF8A;}
	.st13{fill:none;stroke:#000000;stroke-width:2.5;stroke-linecap:round;stroke-miterlimit:10;}
	.st14{fill:none;stroke:#000000;stroke-width:2.5;stroke-linecap:round;stroke-miterlimit:10;stroke-dasharray:3.3655,6.731;}
	.st15{fill:none;stroke:#FFFFFF;stroke-width:2.5;stroke-linecap:round;stroke-miterlimit:10;}
	.st16{fill:none;stroke:#FFFFFF;stroke-width:1.5;stroke-linecap:round;stroke-miterlimit:10;stroke-dasharray:2.7782,5.5565;}
	.st17{fill:none;stroke:#FFFFFF;stroke-width:2.2105;stroke-linecap:round;stroke-miterlimit:10;}
	.st18{fill:none;stroke:#FFFFFF;stroke-width:2.9474;stroke-linecap:round;stroke-miterlimit:10;}
</style>
  <path d="M50,6.4C25.1,6.4,5,25.9,5,50c0,24.1,20.1,43.6,45,43.6V6.4z" fill="#c59c6c"/>
  <g>
    <g>
      <path class="st4" d="M25.9,65.3c-2.2-4.2-3.4-9.1-3.4-14.2c0-5.6,1.5-10.8,4-15.3" fill="#c59c6c"/>
      <g>
        <polygon class="st5" points="27.6,63.6 27.5,68.1 23.7,65.8 			" fill="#c59c6c"/>
      </g>
      <g>
        <polygon class="st5" points="28.1,37.6 28.3,33.2 24.3,35.3 			" fill="#c59c6c"/>
      </g>
    </g>
  </g>
  <line class="st3" x1="38" y1="69.8" x2="38" y2="32.6" fill="#c59c6c"/>
  <line class="st3" x1="25.4" y1="71.8" x2="38" y2="50" fill="#c59c6c"/>
  <line class="st3" x1="25.4" y1="28.2" x2="38" y2="50" fill="#c59c6c"/>
</g>

<g transform="translate(100 0)">
  <style type="text/css">
	.st0{fill:none;stroke:#000000;stroke-width:3;stroke-linecap:round;stroke-miterlimit:10;}
	.st1{fill:none;stroke:#000000;stroke-width:2;stroke-linecap:round;stroke-miterlimit:10;}
	.st2{fill:none;stroke:#000000;stroke-width:4;stroke-linecap:round;stroke-miterlimit:10;}
	.st3{fill:none;stroke:#FFFFFF;stroke-width:2;stroke-linecap:round;stroke-miterlimit:10;}
	.st4{fill:none;stroke:#FFFFFF;stroke-width:1.5;stroke-linecap:round;stroke-miterlimit:10;}
	.st5{fill:#FFFFFF;}
	.st6{fill:none;stroke:#000000;stroke-width:5;stroke-linecap:round;stroke-miterlimit:10;}
	.st7{fill:none;stroke:#FFFFFF;stroke-width:3;stroke-linecap:round;stroke-miterlimit:10;}
	.st8{fill:none;stroke:#FFFFFF;stroke-linecap:round;stroke-miterlimit:10;}
	.st9{fill:#FF0000;}
	.st10{fill:#3FA9F5;}
	.st11{fill:#00FFFF;}
	.st12{fill:#F7FF8A;}
	.st13{fill:none;stroke:#000000;stroke-width:2.5;stroke-linecap:round;stroke-miterlimit:10;}
	.st14{fill:none;stroke:#000000;stroke-width:2.5;stroke-linecap:round;stroke-miterlimit:10;stroke-dasharray:3.3655,6.731;}
	.st15{fill:none;stroke:#FFFFFF;stroke-width:2.5;stroke-linecap:round;stroke-miterlimit:10;}
	.st16{fill:none;stroke:#FFFFFF;stroke-width:1.5;stroke-linecap:round;stroke-miterlimit:10;stroke-dasharray:2.7782,5.5565;}
	.st17{fill:none;stroke:#FFFFFF;stroke-width:2.2105;stroke-linecap:round;stroke-miterlimit:10;}
	.st18{fill:none;stroke:#FFFFFF;stroke-width:2.9474;stroke-linecap:round;stroke-miterlimit:10;}
</style>
  <path d="M50,6.4C25.1,6.4,5,25.9,5,50c0,24.1,20.1,43.6,45,43.6V6.4z" fill="#c59c6c"/>
  <path class="st8" d="M30,36c-3.2,0-6.1,1-8.4,2.8l-2.8,2.8C17,43.9,16,46.8,16,50c0,0,0,0,0,0L30,36L30,36z" fill="#c59c6c"/>
  <path class="st8" d="M41.2,58.4C43,56.1,44,53.2,44,50L30,64c3.2,0,6.1-1,8.4-2.8L41.2,58.4z" fill="#c59c6c"/>
  <path class="st8" d="M30,36L16,50c0,1.7,0.3,3.3,0.8,4.8l17.9-17.9C33.3,36.3,31.7,36,30,36z" fill="#c59c6c"/>
  <path class="st8" d="M18.8,41.6l2.8-2.8C20.5,39.6,19.6,40.5,18.8,41.6z" fill="#c59c6c"/>
  <path class="st8" d="M34.8,36.8L16.8,54.8c0.5,1.3,1.1,2.5,2,3.6l19.6-19.6C37.3,38,36.1,37.3,34.8,36.8z" fill="#c59c6c"/>
  <path class="st8" d="M44,50c0-1.7-0.3-3.3-0.8-4.8L25.2,63.2c1.5,0.5,3.1,0.8,4.8,0.8c0,0,0,0,0,0L44,50C44,50,44,50,44,50z" fill="#c59c6c"/>
  <path class="st8" d="M41.2,58.4l-2.8,2.8C39.5,60.4,40.4,59.5,41.2,58.4z" fill="#c59c6c"/>
  <path class="st8" d="M41.2,41.6L21.6,61.2c1.1,0.8,2.3,1.5,3.6,2l17.9-17.9C42.7,43.9,42,42.7,41.2,41.6z" fill="#c59c6c"/>
  <path class="st8" d="M38.4,38.8L18.8,58.4c0.8,1.1,1.7,2,2.8,2.8l19.6-19.6C40.4,40.5,39.5,39.6,38.4,38.8z" fill="#c59c6c"/>
  <circle class="st3" cx="30" cy="50" r="14" fill="#c59c6c"/>
</g>

<g transform="translate(200 0)">
  <style type="text/css">
	.st0{fill:none;stroke:#000000;stroke-width:3;stroke-linecap:round;stroke-miterlimit:10;}
	.st1{fill:none;stroke:#000000;stroke-width:2;stroke-linecap:round;stroke-miterlimit:10;}
	.st2{fill:none;stroke:#000000;stroke-width:4;stroke-linecap:round;stroke-miterlimit:10;}
	.st3{fill:none;stroke:#FFFFFF;stroke-width:2;stroke-linecap:round;stroke-miterlimit:10;}
	.st4{fill:none;stroke:#FFFFFF;stroke-width:1.5;stroke-linecap:round;stroke-miterlimit:10;}
	.st5{fill:#FFFFFF;}
	.st6{fill:none;stroke:#000000;stroke-width:5;stroke-linecap:round;stroke-miterlimit:10;}
	.st7{fill:none;stroke:#FFFFFF;stroke-width:3;stroke-linecap:round;stroke-miterlimit:10;}
	.st8{fill:none;stroke:#FFFFFF;stroke-linecap:round;stroke-miterlimit:10;}
	.st9{fill:#FF0000;}
	.st10{fill:#3FA9F5;}
	.st11{fill:#00FFFF;}
	.st12{fill:#F7FF8A;}
	.st13{fill:none;stroke:#000000;stroke-width:2.5;stroke-linecap:round;stroke-miterlimit:10;}
	.st14{fill:none;stroke:#000000;stroke-width:2.5;stroke-linecap:round;stroke-miterlimit:10;stroke-dasharray:3.3655,6.731;}
	.st15{fill:none;stroke:#FFFFFF;stroke-width:2.5;stroke-linecap:round;stroke-miterlimit:10;}
	.st16{fill:none;stroke:#FFFFFF;stroke-width:1.5;stroke-linecap:round;stroke-miterlimit:10;stroke-dasharray:2.7782,5.5565;}
	.st17{fill:none;stroke:#FFFFFF;stroke-width:2.2105;stroke-linecap:round;stroke-miterlimit:10;}
	.st18{fill:none;stroke:#FFFFFF;stroke-width:2.9474;stroke-linecap:round;stroke-miterlimit:10;}
</style>
  <path d="M50,6.4C25.1,6.4,5,25.9,5,50c0,24.1,20.1,43.6,45,43.6V6.4z" fill="#c59c6c"/>
  <path class="st11" d="M31.5,46.5c3.1,0,5.9,1.3,7.9,3.5c1.7-1.9,2.8-4.4,2.8-7.2c0-5.9-4.8-10.7-10.7-10.7s-10.7,4.8-10.7,10.7
	c0,2.8,1.1,5.3,2.8,7.2C25.6,47.9,28.4,46.5,31.5,46.5z" fill="#c59c6c"/>
  <path class="st12" d="M31.5,53.5c-3.1,0-5.9-1.3-7.9-3.5c-1.7,1.9-2.8,4.4-2.8,7.2c0,5.9,4.8,10.7,10.7,10.7s10.7-4.8,10.7-10.7
	c0-2.8-1.1-5.3-2.8-7.2C37.4,52.1,34.7,53.5,31.5,53.5z" fill="#c59c6c"/>
  <path class="st5" d="M31.5,53.5c3.1,0,5.9-1.3,7.9-3.5c-2-2.1-4.7-3.5-7.9-3.5c-3.1,0-5.9,1.3-7.9,3.5
	C25.6,52.1,28.4,53.5,31.5,53.5z" fill="#c59c6c"/>
</g>

<g transform="translate(300 0)">
  <style type="text/css">
	.st0{fill:none;stroke:#000000;stroke-width:3;stroke-linecap:round;stroke-miterlimit:10;}
	.st1{fill:none;stroke:#000000;stroke-width:2;stroke-linecap:round;stroke-miterlimit:10;}
	.st2{fill:none;stroke:#000000;stroke-width:4;stroke-linecap:round;stroke-miterlimit:10;}
	.st3{fill:none;stroke:#FFFFFF;stroke-width:2;stroke-linecap:round;stroke-miterlimit:10;}
	.st4{fill:none;stroke:#FFFFFF;stroke-width:1.5;stroke-linecap:round;stroke-miterlimit:10;}
	.st5{fill:#FFFFFF;}
	.st6{fill:none;stroke:#000000;stroke-width:5;stroke-linecap:round;stroke-miterlimit:10;}
	.st7{fill:none;stroke:#FFFFFF;stroke-width:3;stroke-linecap:round;stroke-miterlimit:10;}
	.st8{fill:none;stroke:#FFFFFF;stroke-linecap:round;stroke-miterlimit:10;}
	.st9{fill:#FF0000;}
	.st10{fill:#3FA9F5;}
	.st11{fill:#00FFFF;}
	.st12{fill:#F7FF8A;}
	.st13{fill:none;stroke:#000000;stroke-width:2.5;stroke-linecap:round;stroke-miterlimit:10;}
	.st14{fill:none;stroke:#000000;stroke-width:2.5;stroke-linecap:round;stroke-miterlimit:10;stroke-dasharray:3.3655,6.731;}
	.st15{fill:none;stroke:#FFFFFF;stroke-width:2.5;stroke-linecap:round;stroke-miterlimit:10;}
	.st16{fill:none;stroke:#FFFFFF;stroke-width:1.5;stroke-linecap:round;stroke-miterlimit:10;stroke-dasharray:2.7782,5.5565;}
	.st17{fill:none;stroke:#FFFFFF;stroke-width:2.2105;stroke-linecap:round;stroke-miterlimit:10;}
	.st18{fill:none;stroke:#FFFFFF;stroke-width:2.9474;stroke-linecap:round;stroke-miterlimit:10;}
</style>
  <path d="M50,6.4C25.1,6.4,5,25.9,5,50c0,24.1,20.1,43.6,45,43.6V6.4z" fill="#c59c6c"/>
  <line class="st17" x1="25" y1="27.9" x2="39" y2="28.1" fill="#c59c6c"/>
  <line class="st17" x1="25" y1="71.2" x2="39" y2="71.4" fill="#c59c6c"/>
  <g>
    <g>
      <line class="st18" x1="31.6" y1="35.2" x2="31.6" y2="63.8" fill="#c59c6c"/>
      <g>
        <polygon class="st5" points="27.2,36.5 31.6,28.9 36,36.5 			" fill="#c59c6c"/>
      </g>
      <g>
        <polygon class="st5" points="27.2,62.5 31.6,70.1 36,62.5 			" fill="#c59c6c"/>
      </g>
    </g>
  </g>
</g>

<g transform="translate(400 0)">
  <style type="text/css">
	.st0{fill:none;stroke:#000000;stroke-width:3;stroke-linecap:round;stroke-miterlimit:10;}
	.st1{fill:none;stroke:#000000;stroke-width:2;stroke-linecap:round;stroke-miterlimit:10;}
	.st2{fill:none;stroke:#000000;stroke-width:4;stroke-linecap:round;stroke-miterlimit:10;}
	.st3{fill:none;stroke:#FFFFFF;stroke-width:2;stroke-linecap:round;stroke-miterlimit:10;}
	.st4{fill:none;stroke:#FFFFFF;stroke-width:1.5;stroke-linecap:round;stroke-miterlimit:10;}
	.st5{fill:#FFFFFF;}
	.st6{fill:none;stroke:#000000;stroke-width:5;stroke-linecap:round;stroke-miterlimit:10;}
	.st7{fill:none;stroke:#FFFFFF;stroke-width:3;stroke-linecap:round;stroke-miterlimit:10;}
	.st8{fill:none;stroke:#FFFFFF;stroke-linecap:round;stroke-miterlimit:10;}
	.st9{fill:#FF0000;}
	.st10{fill:#3FA9F5;}
	.st11{fill:#00FFFF;}
	.st12{fill:#F7FF8A;}
	.st13{fill:none;stroke:#000000;stroke-width:2.5;stroke-linecap:round;stroke-miterlimit:10;}
	.st14{fill:none;stroke:#000000;stroke-width:2.5;stroke-linecap:round;stroke-miterlimit:10;stroke-dasharray:3.3655,6.731;}
	.st15{fill:none;stroke:#FFFFFF;stroke-width:2.5;stroke-linecap:round;stroke-miterlimit:10;}
	.st16{fill:none;stroke:#FFFFFF;stroke-width:1.5;stroke-linecap:round;stroke-miterlimit:10;stroke-dasharray:2.7782,5.5565;}
	.st17{fill:none;stroke:#FFFFFF;stroke-width:2.2105;stroke-linecap:round;stroke-miterlimit:10;}
	.st18{fill:none;stroke:#FFFFFF;stroke-width:2.9474;stroke-linecap:round;stroke-miterlimit:10;}
</style>
  <path d="M50,6.4C25.1,6.4,5,25.9,5,50c0,24.1,20.1,43.6,45,43.6V6.4z" fill="#c59c6c"/>
  <path class="st15" d="M15.2,45.7c6.1-8.7,16-12.3,25.7-10.5" fill="#c59c6c"/>
  <ellipse transform="matrix(0.9272 -0.3746 0.3746 0.9272 -22.277 19.4681)" class="st5" cx="38.9" cy="67" rx="2.2" ry="2.5" fill="#c59c6c"/>
  <g>
    <line class="st5" x1="38.5" y1="62.5" x2="38.7" y2="37.3" fill="#c59c6c"/>
    <g>
      <line class="st4" x1="38.5" y1="62.5" x2="38.5" y2="61" fill="#c59c6c"/>
      <line class="st16" x1="38.6" y1="55.5" x2="38.7" y2="41.6" fill="#c59c6c"/>
      <line class="st4" x1="38.7" y1="38.8" x2="38.7" y2="37.3" fill="#c59c6c"/>
    </g>
  </g>
  <g>
    <line class="st5" x1="36.7" y1="64.4" x2="17.3" y2="44.7" fill="#c59c6c"/>
    <g>
      <line class="st4" x1="35.3" y1="63" x2="18.7" y2="46.1" fill="#c59c6c"/>
      <g>
        <polygon class="st5" points="33.5,64.4 36.7,61.2 36.7,64.4 			" fill="#c59c6c"/>
      </g>
      <g>
        <polygon class="st5" points="17.3,47.9 20.6,44.7 17.3,44.7 			" fill="#c59c6c"/>
      </g>
    </g>
  </g>
</g>

<g transform="translate(500 0)">
  <style type="text/css">
	.st0{fill:none;stroke:#000000;stroke-width:3;stroke-linecap:round;stroke-miterlimit:10;}
	.st1{fill:none;stroke:#000000;stroke-width:2;stroke-linecap:round;stroke-miterlimit:10;}
	.st2{fill:none;stroke:#000000;stroke-width:4;stroke-linecap:round;stroke-miterlimit:10;}
	.st3{fill:none;stroke:#FFFFFF;stroke-width:2;stroke-linecap:round;stroke-miterlimit:10;}
	.st4{fill:none;stroke:#FFFFFF;stroke-width:1.5;stroke-linecap:round;stroke-miterlimit:10;}
	.st5{fill:#FFFFFF;}
	.st6{fill:none;stroke:#000000;stroke-width:5;stroke-linecap:round;stroke-miterlimit:10;}
	.st7{fill:none;stroke:#FFFFFF;stroke-width:3;stroke-linecap:round;stroke-miterlimit:10;}
	.st8{fill:none;stroke:#FFFFFF;stroke-linecap:round;stroke-miterlimit:10;}
	.st9{fill:#FF0000;}
	.st10{fill:#3FA9F5;}
	.st11{fill:#00FFFF;}
	.st12{fill:#F7FF8A;}
	.st13{fill:none;stroke:#000000;stroke-width:2.5;stroke-linecap:round;stroke-miterlimit:10;}
	.st14{fill:none;stroke:#000000;stroke-width:2.5;stroke-linecap:round;stroke-miterlimit:10;stroke-dasharray:3.3655,6.731;}
	.st15{fill:none;stroke:#FFFFFF;stroke-width:2.5;stroke-linecap:round;stroke-miterlimit:10;}
	.st16{fill:none;stroke:#FFFFFF;stroke-width:1.5;stroke-linecap:round;stroke-miterlimit:10;stroke-dasharray:2.7782,5.5565;}
	.st17{fill:none;stroke:#FFFFFF;stroke-width:2.2105;stroke-linecap:round;stroke-miterlimit:10;}
	.st18{fill:none;stroke:#FFFFFF;stroke-width:2.9474;stroke-linecap:round;stroke-miterlimit:10;}
</style>
  <path d="M50,6.4C25.1,6.4,5,25.9,5,50c0,24.1,20.1,43.6,45,43.6V6.4z" fill="#c59c6c"/>
  <line class="st3" x1="42" y1="53.6" x2="16.3" y2="53.6" fill="#c59c6c"/>
  <line class="st3" x1="39.8" y1="44.7" x2="39.6" y2="58" fill="#c59c6c"/>
  <line class="st3" x1="18.7" y1="44.7" x2="18.5" y2="58" fill="#c59c6c"/>
  <g>
    <g>
      <line class="st4" x1="33.4" y1="46.2" x2="25.1" y2="46.2" fill="#c59c6c"/>
      <g>
        <polygon class="st5" points="32.7,44 36.6,46.2 32.7,48.5 			" fill="#c59c6c"/>
      </g>
      <g>
        <polygon class="st5" points="25.8,44 21.9,46.2 25.8,48.5 			" fill="#c59c6c"/>
      </g>
    </g>
  </g>
</g>

<g transform="translate(600 0)">
  <style type="text/css">
	.st0{fill:none;stroke:#000000;stroke-width:3;stroke-linecap:round;stroke-miterlimit:10;}
	.st1{fill:none;stroke:#000000;stroke-width:2;stroke-linecap:round;stroke-miterlimit:10;}
	.st2{fill:none;stroke:#000000;stroke-width:4;stroke-linecap:round;stroke-miterlimit:10;}
	.st3{fill:none;stroke:#FFFFFF;stroke-width:2;stroke-linecap:round;stroke-miterlimit:10;}
	.st4{fill:none;stroke:#FFFFFF;stroke-width:1.5;stroke-linecap:round;stroke-miterlimit:10;}
	.st5{fill:#FFFFFF;}
	.st6{fill:none;stroke:#000000;stroke-width:5;stroke-linecap:round;stroke-miterlimit:10;}
	.st7{fill:none;stroke:#FFFFFF;stroke-width:3;stroke-linecap:round;stroke-miterlimit:10;}
	.st8{fill:none;stroke:#FFFFFF;stroke-linecap:round;stroke-miterlimit:10;}
	.st9{fill:#FF0000;}
	.st10{fill:#3FA9F5;}
	.st11{fill:#00FFFF;}
	.st12{fill:#F7FF8A;}
	.st13{fill:none;stroke:#000000;stroke-width:2.5;stroke-linecap:round;stroke-miterlimit:10;}
	.st14{fill:none;stroke:#000000;stroke-width:2.5;stroke-linecap:round;stroke-miterlimit:10;stroke-dasharray:3.3655,6.731;}
	.st15{fill:none;stroke:#FFFFFF;stroke-width:2.5;stroke-linecap:round;stroke-miterlimit:10;}
	.st16{fill:none;stroke:#FFFFFF;stroke-width:1.5;stroke-linecap:round;stroke-miterlimit:10;stroke-dasharray:2.7782,5.5565;}
	.st17{fill:none;stroke:#FFFFFF;stroke-width:2.2105;stroke-linecap:round;stroke-miterlimit:10;}
	.st18{fill:none;stroke:#FFFFFF;stroke-width:2.9474;stroke-linecap:round;stroke-miterlimit:10;}
</style>
  <path d="M50,6.4C25.1,6.4,5,25.9,5,50c0,24.1,20.1,43.6,45,43.6V6.4z" fill="#c59c6c"/>
  <line class="st3" x1="35.3" y1="27.1" x2="35.3" y2="72.1" fill="#c59c6c"/>
  <line class="st3" x1="24.7" y1="29.1" x2="39.2" y2="29.3" fill="#c59c6c"/>
  <line class="st3" x1="24.7" y1="69.9" x2="39.2" y2="70.1" fill="#c59c6c"/>
  <g>
    <g>
      <line class="st4" x1="28.5" y1="35.3" x2="28.5" y2="63.8" fill="#c59c6c"/>
      <g>
        <polygon class="st5" points="26.2,36 28.5,32.1 30.7,36 			" fill="#c59c6c"/>
      </g>
      <g>
        <polygon class="st5" points="26.2,63.1 28.5,67 30.7,63.1 			" fill="#c59c6c"/>
      </g>
    </g>
  </g>
</g></svg>