<?xml version="1.0" encoding="UTF-8" standalone="yes"?><svg xmlns="http://www.w3.org/2000/svg" xmlns:xlink="http://www.w3.org/1999/xlink" x="0" y="0" viewBox="0 0 20000 100">
<g transform="translate(0 0)">
  <circle cx="50" cy="50" r="45" fill="#29abe1"/>
  <path fill="#FFFFFF" d="M75,69.1H64.4l3.8-6.6h-3v-9.2h3l-3.8-6.6h3.7c1.4,0,2.5-1.1,2.5-2.5c0-1.4-1.1-2.5-2.5-2.5h-8.8
	c-1.4,0-2.5,1.1-2.5,2.5c0,1.4,1.1,2.5,2.5,2.5h3.7l-3.8,6.6h3v9.2h-3l3.8,6.6H36.9l3.8-6.6h-3V32.6h3l-3.8-6.6h3.7
	c1.4,0,2.5-1.1,2.5-2.5c0-1.4-1.1-2.5-2.5-2.5h-8.8c-1.4,0-2.5,1.1-2.5,2.5c0,1.4,1.1,2.5,2.5,2.5h3.7l-3.8,6.6h3v29.8h-3l3.8,6.6
	H25c-1.4,0-2.5,1.1-2.5,2.5c0,1.4,1.1,2.5,2.5,2.5h50c1.4,0,2.5-1.1,2.5-2.5C77.5,70.2,76.4,69.1,75,69.1z"/>
</g>

<g transform="translate(100 0)">
  <circle cx="50" cy="50" r="45" fill="#29abe1"/>
  <g>
    <path fill="#FFFFFF" d="M78.5,67.1H26l26.3-45.5c0.7-1.2,0.3-2.7-0.9-3.4c-1.2-0.7-2.7-0.3-3.4,0.9L19.3,69c-0.4,0.6-0.4,1.4,0,2
		c0.4,0.6,1,1,1.7,1h57.5c1.4,0,2.5-1.1,2.5-2.5C81,68.2,79.9,67.1,78.5,67.1z"/>
    <path fill="#FFFFFF" d="M58.9,67.1l3.7-8.2l-3.3,0.3c-1.4-6.5-4.8-12.4-9.8-16.9l1.9-2.7l-8.9-0.9l3.7,8.2l1.8-2.6
		c4.4,4.1,7.4,9.3,8.7,15.1l-3.2,0.3L58.9,67.1z"/>
  </g>
</g>

<g transform="translate(200 0)">
  <circle cx="50" cy="50" r="45" fill="#29abe1"/>
  <circle fill="#FFFFFF" cx="47" cy="63.7" r="16.3"/>
  <circle fill="#FFFFFF" cx="70" cy="62.1" r="5.4"/>
  <circle fill="#FFFFFF" cx="67.9" cy="47.8" r="8"/>
  <circle fill="#FFFFFF" cx="51.1" cy="32.9" r="13.4"/>
  <circle fill="#FFFFFF" cx="31.2" cy="43.5" r="8"/>
  <circle fill="#FFFFFF" cx="66.5" cy="71.2" r="3.3"/>
</g>

<g transform="translate(300 0)">
  <circle cx="50" cy="50" r="45" fill="#29abe1"/>
  <path fill="#FF0000" d="M68.4,31.6C63.5,26.7,57,24,50,24v-6.5c8.7,0,16.8,3.4,23,9.5L68.4,31.6z"/>
  <path fill="#FF00FF" d="M50,24c-6.9,0-13.5,2.7-18.4,7.6L27,27c6.1-6.1,14.3-9.5,23-9.5L50,24z"/>
  <path fill="#5500FF" d="M31.6,31.6C26.7,36.5,24,43.1,24,50h-6.5c0-8.7,3.4-16.8,9.5-23L31.6,31.6z"/>
  <path fill="#0080FF" d="M24,50c0,6.9,2.7,13.5,7.6,18.4L27,73c-6.1-6.1-9.5-14.3-9.5-23L24,50z"/>
  <path fill="#00FFD5" d="M31.6,68.4C36.5,73.3,43.1,76,50,76v6.5c-8.7,0-16.8-3.4-23-9.5L31.6,68.4z"/>
  <path fill="#55FF00" d="M50,76c6.9,0,13.5-2.7,18.4-7.6L73,73c-6.1,6.1-14.3,9.5-23,9.5L50,76z"/>
  <path fill="#FFFF00" d="M68.4,68.4C73.3,63.5,76,56.9,76,50h6.5c0,8.7-3.4,16.8-9.5,23L68.4,68.4z"/>
  <path fill="#FF9500" d="M76,50c0-6.9-2.7-13.5-7.6-18.4L73,27c6.1,6.1,9.5,14.3,9.5,23L76,50z"/>
  <g>
    <g>
      <path fill="#FFFFFF" d="M11.5,100c1.9,0,1.9-3,0-3C9.6,97,9.6,100,11.5,100L11.5,100z"/>
    </g>
  </g>
</g>

<g transform="translate(400 0)">
  <circle cx="50" cy="50" r="45" fill="#29abe1"/>
  <polygon fill="#FFFFFF" points="80,69.5 73,57.4 70.4,61.9 51.8,51.1 51.8,29.6 57,29.6 50,17.5 43,29.6 48.3,29.6 48.3,51.1 
	29.6,61.9 27,57.4 20,69.5 34,69.5 31.3,65 50,54.2 68.7,65 66,69.5 "/>
</g>

<g transform="translate(500 0)">
  <circle cx="50" cy="50" r="45" fill="#29abe1"/>
  <path fill="#FF0000" d="M68.4,31.6C63.5,26.7,57,24,50,24v-6.5c8.7,0,16.8,3.4,23,9.5L68.4,31.6z"/>
  <path fill="#FF00FF" d="M50,24c-6.9,0-13.5,2.7-18.4,7.6L27,27c6.1-6.1,14.3-9.5,23-9.5L50,24z"/>
  <path fill="#5500FF" d="M31.6,31.6C26.7,36.5,24,43.1,24,50h-6.5c0-8.7,3.4-16.8,9.5-23L31.6,31.6z"/>
  <path fill="#0080FF" d="M24,50c0,6.9,2.7,13.5,7.6,18.4L27,73c-6.1-6.1-9.5-14.3-9.5-23L24,50z"/>
  <path fill="#00FFD5" d="M31.6,68.4C36.5,73.3,43.1,76,50,76v6.5c-8.7,0-16.8-3.4-23-9.5L31.6,68.4z"/>
  <path fill="#55FF00" d="M50,76c6.9,0,13.5-2.7,18.4-7.6L73,73c-6.1,6.1-14.3,9.5-23,9.5L50,76z"/>
  <path fill="#FFFF00" d="M68.4,68.4C73.3,63.5,76,56.9,76,50h6.5c0,8.7-3.4,16.8-9.5,23L68.4,68.4z"/>
  <path fill="#FF9500" d="M76,50c0-6.9-2.7-13.5-7.6-18.4L73,27c6.1,6.1,9.5,14.3,9.5,23L76,50z"/>
  <g>
    <g>
      <path fill="#FFFFFF" d="M11.5,100c1.9,0,1.9-3,0-3C9.6,97,9.6,100,11.5,100L11.5,100z"/>
    </g>
  </g>
</g>

<g transform="translate(600 0)">
  <circle cx="50" cy="50" r="45" fill="#29abe1"/>
  <g>
    <path fill="#FFFFFF" d="M44.6,24c0-1.4-1.1-2.5-2.5-2.5h-9.9c-1.4,0-2.5,1.1-2.5,2.5c0,1.4,1.1,2.5,2.5,2.5h4.3l-3.9,6.8h3v33.5h-3
		l3.9,6.8h-4.3c-1.4,0-2.5,1.1-2.5,2.5c0,1.4,1.1,2.5,2.5,2.5h9.9c1.4,0,2.5-1.1,2.5-2.5c0-1.4-1.1-2.5-2.5-2.5h-4.3l3.9-6.8h-3
		V33.3h3l-3.9-6.8h4.3C43.5,26.5,44.6,25.4,44.6,24z"/>
    <path fill="#FFFFFF" d="M67.8,58.6h-4.3l3.9-6.8h-3V40.7h3l-3.9-6.8h4.3c1.4,0,2.5-1.1,2.5-2.5c0-1.4-1.1-2.5-2.5-2.5h-9.9
		c-1.4,0-2.5,1.1-2.5,2.5c0,1.4,1.1,2.5,2.5,2.5h4.3l-3.9,6.8h3v11.2h-3l3.9,6.8h-4.3c-1.4,0-2.5,1.1-2.5,2.5c0,1.4,1.1,2.5,2.5,2.5
		h9.9c1.4,0,2.5-1.1,2.5-2.5C70.3,59.8,69.2,58.6,67.8,58.6z"/>
  </g>
</g>

<g transform="translate(700 0)">
  <circle cx="50" cy="50" r="45" fill="#29abe1"/>
  <path fill="#1C1C1C" d="M68.4,31.6C63.5,26.7,57,24,50,24v-6.5c8.7,0,16.8,3.4,23,9.5L68.4,31.6z"/>
  <path fill="#EEEEEE" d="M50,24c-6.9,0-13.5,2.7-18.4,7.6L27,27c6.1-6.1,14.3-9.5,23-9.5L50,24z"/>
  <path fill="#CCCCCC" d="M31.6,31.6C26.7,36.5,24,43.1,24,50h-6.5c0-8.7,3.4-16.8,9.5-23L31.6,31.6z"/>
  <path fill="#AAAAAA" d="M24,50c0,6.9,2.7,13.5,7.6,18.4L27,73c-6.1-6.1-9.5-14.3-9.5-23L24,50z"/>
  <path fill="#888888" d="M31.6,68.4C36.5,73.3,43.1,76,50,76v6.5c-8.7,0-16.8-3.4-23-9.5L31.6,68.4z"/>
  <path fill="#666666" d="M50,76c6.9,0,13.5-2.7,18.4-7.6L73,73c-6.1,6.1-14.3,9.5-23,9.5L50,76z"/>
  <path fill="#4A4A4A" d="M68.4,68.4C73.3,63.5,76,56.9,76,50h6.5c0,8.7-3.4,16.8-9.5,23L68.4,68.4z"/>
  <path fill="#363636" d="M76,50c0-6.9-2.7-13.5-7.6-18.4L73,27c6.1,6.1,9.5,14.3,9.5,23L76,50z"/>
</g>

<g transform="translate(800 0)">
  <circle cx="50" cy="50" r="45" fill="#29abe1"/>
  <g>
    <path fill="#FFFFFF" d="M78.1,69.2h-10v-3.1h-2v3.1H51.3v-2.6h-2v2.6h-16V51.1h0.6v-2h-0.6V33.9h1.7v-2h-1.7v-7.5
		c0-1-0.8-1.9-1.9-1.9c-1,0-1.9,0.8-1.9,1.9v44.9h-3.6c-1,0-1.9,0.8-1.9,1.9s0.8,1.9,1.9,1.9h3.6v3.6c0,1,0.8,1.9,1.9,1.9
		c1,0,1.9-0.8,1.9-1.9V73h44.9c1,0,1.9-0.8,1.9-1.9S79.2,69.2,78.1,69.2z"/>
    <path fill="#FFFFFF" d="M43.9,33.9h2.6c0.4,1.4,1.4,2.4,2.8,2.8v2.9h2v-2.9c1.7-0.4,2.9-2,2.9-3.8c0-2.2-1.8-3.9-3.9-3.9
		c-1.8,0-3.3,1.3-3.8,2.9h-2.6V33.9z"/>
    <path fill="#FFFFFF" d="M60.8,51.1h2.6c0.4,1.4,1.4,2.4,2.8,2.8v3h2v-3c1.7-0.4,2.9-2,2.9-3.8c0-2.2-1.8-3.9-3.9-3.9
		c-1.8,0-3.3,1.3-3.8,2.9h-2.6V51.1z"/>
    <rect x="37.9" y="31.9" fill="#FFFFFF" width="3" height="2"/>
    <rect x="49.3" y="54.6" fill="#FFFFFF" width="2" height="3"/>
    <rect x="49.3" y="60.6" fill="#FFFFFF" width="2" height="3"/>
    <rect x="49.3" y="42.6" fill="#FFFFFF" width="2" height="3"/>
    <rect x="54.8" y="49.1" fill="#FFFFFF" width="3" height="2"/>
    <rect x="36.8" y="49.1" fill="#FFFFFF" width="3" height="2"/>
    <rect x="42.8" y="49.1" fill="#FFFFFF" width="3" height="2"/>
    <rect x="66.2" y="59.9" fill="#FFFFFF" width="2" height="3.2"/>
    <polygon fill="#FFFFFF" points="51.3,51.1 51.8,51.1 51.8,49.1 51.3,49.1 51.3,48.6 49.3,48.6 49.3,49.1 48.8,49.1 48.8,51.1 
		49.3,51.1 49.3,51.6 51.3,51.6 	"/>
  </g>
</g>

<g transform="translate(900 0)">
  <circle cx="50" cy="50" r="45" fill="#29abe1"/>
  <path fill="#E60000" d="M68.4,31.6C63.5,26.7,57,24,50,24v-6.5c8.7,0,16.8,3.4,23,9.5L68.4,31.6z"/>
  <path fill="#E6E6E6" d="M50,24c-6.9,0-13.5,2.7-18.4,7.6L27,27c6.1-6.1,14.3-9.5,23-9.5L50,24z"/>
  <path fill="#EBCDCD" d="M31.6,31.6C26.7,36.5,24,43.1,24,50h-6.5c0-8.7,3.4-16.8,9.5-23L31.6,31.6z"/>
  <path fill="#F0B4B4" d="M24,50c0,6.9,2.7,13.5,7.6,18.4L27,73c-6.1-6.1-9.5-14.3-9.5-23L24,50z"/>
  <path fill="#F59999" d="M31.6,68.4C36.5,73.3,43.1,76,50,76v6.5c-8.7,0-16.8-3.4-23-9.5L31.6,68.4z"/>
  <path fill="#FA7D7D" d="M50,76c6.9,0,13.5-2.7,18.4-7.6L73,73c-6.1,6.1-14.3,9.5-23,9.5L50,76z"/>
  <path fill="#FF6060" d="M68.4,68.4C73.3,63.5,76,56.9,76,50h6.5c0,8.7-3.4,16.8-9.5,23L68.4,68.4z"/>
  <path fill="#FF4040" d="M76,50c0-6.9-2.7-13.5-7.6-18.4L73,27c6.1,6.1,9.5,14.3,9.5,23L76,50z"/>
</g>

<g transform="translate(1000 0)">
  <circle cx="50" cy="50" r="45" fill="#29abe1"/>
  <circle fill="#FFFFFF" cx="25.5" cy="50" r="8"/>
  <rect x="41.8" y="42.4" fill="#FFFFFF" width="15.1" height="15.1"/>
  <polygon fill="#FFFFFF" points="73.3,42 64.1,58 82.5,58 "/>
</g>

<g transform="translate(1100 0)">
  <circle cx="50" cy="50" r="45" fill="#29abe1"/>
  <path fill="#FFFFFF" d="M77,35.3C77,35.3,77,35.3,77,35.3c0-0.6-0.3-1.2-0.8-1.4L50.7,21.2c-0.4-0.2-0.9-0.2-1.3,0L23.8,33.9
	c-0.5,0.3-0.8,0.8-0.8,1.4c0,0,0,0,0,0c0,0,0,0,0,0v29.4c0,0.6,0.3,1.1,0.8,1.3l25.5,12.8c0.1,0,0.1,0,0.2,0.1c0,0,0.1,0,0.1,0
	c0.1,0,0.2,0.1,0.4,0.1s0.3,0,0.4-0.1c0,0,0.1,0,0.1,0c0.1,0,0.1,0,0.2-0.1l25.5-12.8c0.5-0.3,0.8-0.8,0.8-1.3L77,35.3
	C77,35.4,77,35.4,77,35.3z M50,24.2l22.3,11.1L50,46.5L27.7,35.3L50,24.2z M26,37.8l22.5,11.3v26L26,63.8V37.8z M51.5,75.1v-26
	L74,37.8v26L51.5,75.1z"/>
</g></svg>